<svg width="58" height="58" fill="none" xmlns="http://www.w3.org/2000/svg"><circle cx="29" cy="29" r="28" stroke="#fff" stroke-linecap="round" stroke-dasharray="5 5"/><path d="M17.527 37.344c.208-.22.489-.344.782-.344h27.135c.495 0 .743.633.39.997l-5.361 5.66c-.209.22-.489.343-.782.343H12.556c-.495 0-.743-.633-.39-.997l5.361-5.66ZM40.473 27.344a1.076 1.076 0 0 0-.782-.344H12.556c-.495 0-.743.633-.39.998l5.361 5.658c.208.22.489.344.782.344h27.135c.495 0 .743-.633.39-.998l-5.361-5.658ZM17.527 17.344c.208-.22.489-.344.782-.344h27.135c.495 0 .743.633.39.998l-5.361 5.658c-.209.22-.489.344-.782.344H12.556c-.495 0-.743-.633-.39-.998l5.361-5.658Z" fill="#fff"/></svg>